<svg width="132" height="71" viewBox="0 0 132 71" fill="none" xmlns="http://www.w3.org/2000/svg">
<path d="M13.455 15.21H12.915C10.245 15.21 8.16 15.885 6.66 17.235C5.19 18.555 4.455 20.91 4.455 24.3C4.455 25.41 4.56 26.19 4.77 26.64C4.98 27.06 5.085 27.3 5.085 27.36C3.465 27.36 2.25 27.03 1.44 26.37C0.66 25.68 0.27 24.555 0.27 22.995C0.27 20.865 0.795 18.93 1.845 17.19C2.895 15.42 4.56 13.995 6.84 12.915C9.15 11.835 12.075 11.295 15.615 11.295C17.595 11.295 19.725 11.475 22.005 11.835C23.925 12.165 25.635 12.33 27.135 12.33C29.055 12.33 30.795 12.015 32.355 11.385C32.295 13.335 31.8 14.775 30.87 15.705C29.94 16.635 28.56 17.1 26.73 17.1C25.77 17.1 24.81 17.025 23.85 16.875C22.89 16.725 21.525 16.47 19.755 16.11L13.545 45H7.065L13.455 15.21ZM24.725 22.5H31.205L30.62 25.29C31.64 24.39 32.555 23.7 33.365 23.22C34.205 22.74 35.105 22.5 36.065 22.5C37.025 22.5 37.775 22.83 38.315 23.49C38.885 24.15 39.17 24.945 39.17 25.875C39.17 26.745 38.885 27.51 38.315 28.17C37.745 28.83 36.95 29.16 35.93 29.16C35.27 29.16 34.82 29.01 34.58 28.71C34.37 28.38 34.205 27.915 34.085 27.315C33.995 26.925 33.905 26.64 33.815 26.46C33.725 26.28 33.56 26.19 33.32 26.19C32.69 26.19 32.15 26.325 31.7 26.595C31.28 26.835 30.725 27.27 30.035 27.9L26.435 45H19.955L24.725 22.5ZM46.099 20.07C45.109 20.07 44.269 19.725 43.579 19.035C42.889 18.345 42.544 17.505 42.544 16.515C42.544 15.525 42.889 14.685 43.579 13.995C44.269 13.275 45.109 12.915 46.099 12.915C47.089 12.915 47.929 13.275 48.619 13.995C49.339 14.685 49.699 15.525 49.699 16.515C49.699 17.505 49.339 18.345 48.619 19.035C47.929 19.725 47.089 20.07 46.099 20.07ZM43.039 45.27C41.599 45.27 40.429 44.82 39.529 43.92C38.659 43.02 38.224 41.67 38.224 39.87C38.224 39.12 38.344 38.145 38.584 36.945L41.644 22.5H48.124L44.884 37.8C44.764 38.25 44.704 38.73 44.704 39.24C44.704 39.84 44.839 40.275 45.109 40.545C45.409 40.785 45.889 40.905 46.549 40.905C47.419 40.905 48.229 40.545 48.979 39.825C49.729 39.075 50.269 38.115 50.599 36.945H52.489C51.379 40.185 49.954 42.39 48.214 43.56C46.474 44.7 44.749 45.27 43.039 45.27ZM67.5011 45.27C65.6411 45.27 64.2311 44.835 63.2711 43.965C62.3111 43.065 61.8311 41.79 61.8311 40.14C61.8311 39.42 61.9211 38.64 62.1011 37.8L62.4611 36.045C62.5811 35.535 62.6411 34.98 62.6411 34.38C62.6411 32.94 62.1011 32.22 61.0211 32.22C60.5411 32.22 60.0311 32.355 59.4911 32.625C58.9811 32.895 58.3811 33.315 57.6911 33.885L55.3511 45H48.8711L55.3961 14.4L62.0561 13.5L58.6811 29.34L67.3661 22.5H71.8211L62.8211 28.755C63.2711 28.635 63.7661 28.575 64.3061 28.575C65.9261 28.575 67.1561 29.07 67.9961 30.06C68.8361 31.05 69.2561 32.31 69.2561 33.84C69.2561 34.47 69.1961 35.04 69.0761 35.55L68.5811 37.8C68.4311 38.34 68.3561 38.82 68.3561 39.24C68.3561 40.35 68.9411 40.905 70.1111 40.905C71.0111 40.905 71.7311 40.59 72.2711 39.96C72.8111 39.3 73.3511 38.295 73.8911 36.945H75.7811C73.9211 42.495 71.1611 45.27 67.5011 45.27ZM78.3271 45.27C76.8871 45.27 75.7171 44.82 74.8171 43.92C73.9471 43.02 73.5121 41.67 73.5121 39.87C73.5121 39.12 73.6321 38.145 73.8721 36.945L76.9321 22.5H83.4121L80.1721 37.8C80.0821 38.25 80.0371 38.67 80.0371 39.06C80.0371 40.29 80.4871 40.905 81.3871 40.905C82.2271 40.905 82.9471 40.56 83.5471 39.87C84.1471 39.15 84.6271 38.175 84.9871 36.945L88.0471 22.5H94.5271L91.2871 37.8C91.1671 38.25 91.1071 38.73 91.1071 39.24C91.1071 39.84 91.2421 40.275 91.5121 40.545C91.8121 40.785 92.2921 40.905 92.9521 40.905C93.7921 40.905 94.5121 40.545 95.1121 39.825C95.7421 39.105 96.2371 38.145 96.5971 36.945H98.4871C97.3771 40.185 95.9971 42.39 94.3471 43.56C92.7271 44.7 91.0921 45.27 89.4421 45.27C88.1521 45.27 87.1171 44.91 86.3371 44.19C85.5871 43.47 85.1371 42.405 84.9871 40.995C83.9671 42.645 82.8871 43.77 81.7471 44.37C80.6371 44.97 79.4971 45.27 78.3271 45.27ZM101.047 45.27C99.6068 45.27 98.4368 44.82 97.5368 43.92C96.6668 43.02 96.2318 41.67 96.2318 39.87C96.2318 39.12 96.3518 38.145 96.5918 36.945L99.2918 24.3H97.8068L98.1668 22.5H99.6518L101.002 16.29L107.662 15.39L106.132 22.5H108.832L108.472 24.3H105.772L102.892 37.8C102.772 38.25 102.712 38.73 102.712 39.24C102.712 39.84 102.847 40.275 103.117 40.545C103.417 40.785 103.897 40.905 104.557 40.905C105.427 40.905 106.237 40.545 106.987 39.825C107.737 39.075 108.277 38.115 108.607 36.945H110.497C109.387 40.185 107.962 42.39 106.222 43.56C104.482 44.7 102.757 45.27 101.047 45.27ZM113.989 45.27C112.279 45.27 110.854 44.685 109.714 43.515C108.574 42.345 108.004 40.515 108.004 38.025C108.004 35.805 108.439 33.48 109.309 31.05C110.209 28.59 111.529 26.52 113.269 24.84C115.039 23.13 117.139 22.275 119.569 22.275C120.799 22.275 121.714 22.485 122.314 22.905C122.914 23.325 123.214 23.88 123.214 24.57V24.885L123.709 22.5H130.189L126.949 37.8C126.829 38.25 126.769 38.73 126.769 39.24C126.769 39.84 126.904 40.275 127.174 40.545C127.474 40.785 127.954 40.905 128.614 40.905C129.034 40.905 129.364 40.845 129.604 40.725C128.944 42.405 128.314 43.59 127.714 44.28C127.114 44.94 126.244 45.27 125.104 45.27C123.874 45.27 122.869 44.91 122.089 44.19C121.339 43.44 120.874 42.405 120.694 41.085C118.864 43.875 116.629 45.27 113.989 45.27ZM116.914 40.905C117.664 40.905 118.399 40.56 119.119 39.87C119.869 39.15 120.379 38.175 120.649 36.945L122.809 26.775C122.809 26.385 122.659 26.01 122.359 25.65C122.059 25.26 121.594 25.065 120.964 25.065C119.764 25.065 118.684 25.77 117.724 27.18C116.764 28.56 116.014 30.24 115.474 32.22C114.934 34.17 114.664 35.895 114.664 37.395C114.664 38.895 114.874 39.855 115.294 40.275C115.744 40.695 116.284 40.905 116.914 40.905Z" fill="#E74F21"/>
<path d="M9.166 66V51.552H12.043V66H9.166ZM4.462 53.778V51.237H16.747V53.778H4.462ZM16.3332 66V55.857H19.0842V66H16.3332ZM19.0842 60.393L18.0132 59.679C18.1392 58.433 18.5032 57.453 19.1052 56.739C19.7072 56.011 20.5752 55.647 21.7092 55.647C22.1992 55.647 22.6402 55.731 23.0322 55.899C23.4242 56.053 23.7812 56.312 24.1032 56.676L22.3812 58.65C22.2272 58.482 22.0382 58.356 21.8142 58.272C21.6042 58.188 21.3592 58.146 21.0792 58.146C20.4912 58.146 20.0082 58.335 19.6302 58.713C19.2662 59.077 19.0842 59.637 19.0842 60.393ZM29.0245 66.21C28.1005 66.21 27.2675 65.979 26.5255 65.517C25.7835 65.055 25.2025 64.425 24.7825 63.627C24.3625 62.829 24.1525 61.933 24.1525 60.939C24.1525 59.931 24.3625 59.028 24.7825 58.23C25.2025 57.432 25.7835 56.802 26.5255 56.34C27.2675 55.878 28.1005 55.647 29.0245 55.647C29.7525 55.647 30.4035 55.794 30.9775 56.088C31.5515 56.382 32.0065 56.795 32.3425 57.327C32.6925 57.845 32.8815 58.433 32.9095 59.091V62.745C32.8815 63.417 32.6925 64.012 32.3425 64.53C32.0065 65.048 31.5515 65.461 30.9775 65.769C30.4035 66.063 29.7525 66.21 29.0245 66.21ZM29.5285 63.669C30.2985 63.669 30.9215 63.417 31.3975 62.913C31.8735 62.395 32.1115 61.73 32.1115 60.918C32.1115 60.386 31.9995 59.917 31.7755 59.511C31.5655 59.091 31.2645 58.769 30.8725 58.545C30.4945 58.307 30.0465 58.188 29.5285 58.188C29.0245 58.188 28.5765 58.307 28.1845 58.545C27.8065 58.769 27.5055 59.091 27.2815 59.511C27.0715 59.917 26.9665 60.386 26.9665 60.918C26.9665 61.464 27.0715 61.947 27.2815 62.367C27.5055 62.773 27.8065 63.095 28.1845 63.333C28.5765 63.557 29.0245 63.669 29.5285 63.669ZM31.9645 66V63.27L32.4055 60.792L31.9645 58.356V55.857H34.6945V66H31.9645ZM40.4252 66L35.9522 55.857H38.9762L42.1892 64.215H40.6982L43.9322 55.857H46.8512L42.3992 66H40.4252ZM52.6637 66.21C51.5997 66.21 50.6547 65.986 49.8287 65.538C49.0027 65.076 48.3447 64.446 47.8547 63.648C47.3787 62.85 47.1407 61.94 47.1407 60.918C47.1407 59.91 47.3717 59.014 47.8337 58.23C48.3097 57.432 48.9537 56.802 49.7657 56.34C50.5777 55.864 51.4807 55.626 52.4747 55.626C53.4547 55.626 54.3157 55.85 55.0577 56.298C55.8137 56.732 56.4017 57.334 56.8217 58.104C57.2557 58.86 57.4727 59.721 57.4727 60.687C57.4727 60.869 57.4587 61.058 57.4307 61.254C57.4167 61.436 57.3817 61.646 57.3257 61.884L48.7997 61.905V59.847L56.0447 59.826L54.9317 60.687C54.9037 60.085 54.7917 59.581 54.5957 59.175C54.4137 58.769 54.1407 58.461 53.7767 58.251C53.4267 58.027 52.9927 57.915 52.4747 57.915C51.9287 57.915 51.4527 58.041 51.0467 58.293C50.6407 58.531 50.3257 58.874 50.1017 59.322C49.8917 59.756 49.7867 60.274 49.7867 60.876C49.7867 61.492 49.8987 62.031 50.1227 62.493C50.3607 62.941 50.6967 63.291 51.1307 63.543C51.5647 63.781 52.0687 63.9 52.6427 63.9C53.1607 63.9 53.6297 63.816 54.0497 63.648C54.4697 63.466 54.8337 63.2 55.1417 62.85L56.7587 64.467C56.2687 65.041 55.6667 65.475 54.9527 65.769C54.2527 66.063 53.4897 66.21 52.6637 66.21ZM59.1741 66V50.817H61.9251V66H59.1741ZM68.7581 66V51.237H71.6141V66H68.7581ZM70.8581 66V63.48H79.0271V66H70.8581ZM70.8581 59.679V57.243H78.2921V59.679H70.8581ZM70.8581 53.757V51.237H78.9221V53.757H70.8581ZM87.4389 66L84.7719 61.884L84.2049 61.464L80.2569 55.857H83.5119L85.9689 59.574L86.4939 59.973L90.6729 66H87.4389ZM80.0469 66L84.1839 60.204L85.7589 62.073L83.1549 66H80.0469ZM86.5989 61.443L84.9819 59.595L87.3969 55.857H90.4839L86.5989 61.443ZM97.7171 66.21C96.9891 66.21 96.3311 66.063 95.7431 65.769C95.1551 65.461 94.6861 65.048 94.3361 64.53C93.9861 64.012 93.7971 63.417 93.7691 62.745V59.154C93.7971 58.482 93.9861 57.887 94.3361 57.369C94.7001 56.837 95.1691 56.417 95.7431 56.109C96.3311 55.801 96.9891 55.647 97.7171 55.647C98.6551 55.647 99.4951 55.878 100.237 56.34C100.979 56.802 101.56 57.432 101.98 58.23C102.414 59.028 102.631 59.931 102.631 60.939C102.631 61.933 102.414 62.829 101.98 63.627C101.56 64.425 100.979 65.055 100.237 65.517C99.4951 65.979 98.6551 66.21 97.7171 66.21ZM97.2341 63.669C97.7381 63.669 98.1861 63.557 98.5781 63.333C98.9701 63.095 99.2711 62.773 99.4811 62.367C99.7051 61.947 99.8171 61.464 99.8171 60.918C99.8171 60.386 99.7051 59.917 99.4811 59.511C99.2711 59.091 98.9701 58.769 98.5781 58.545C98.1861 58.307 97.7381 58.188 97.2341 58.188C96.7441 58.188 96.3031 58.307 95.9111 58.545C95.5191 58.769 95.2111 59.091 94.9871 59.511C94.7771 59.917 94.6721 60.386 94.6721 60.918C94.6721 61.464 94.7771 61.947 94.9871 62.367C95.2111 62.773 95.5121 63.095 95.8901 63.333C96.2821 63.557 96.7301 63.669 97.2341 63.669ZM92.0891 70.242V55.857H94.8401V58.524L94.3781 60.981L94.8191 63.438V70.242H92.0891ZM109.286 66.21C108.222 66.21 107.277 65.986 106.451 65.538C105.625 65.076 104.967 64.446 104.477 63.648C104.001 62.85 103.763 61.94 103.763 60.918C103.763 59.91 103.994 59.014 104.456 58.23C104.932 57.432 105.576 56.802 106.388 56.34C107.2 55.864 108.103 55.626 109.097 55.626C110.077 55.626 110.938 55.85 111.68 56.298C112.436 56.732 113.024 57.334 113.444 58.104C113.878 58.86 114.095 59.721 114.095 60.687C114.095 60.869 114.081 61.058 114.053 61.254C114.039 61.436 114.004 61.646 113.948 61.884L105.422 61.905V59.847L112.667 59.826L111.554 60.687C111.526 60.085 111.414 59.581 111.218 59.175C111.036 58.769 110.763 58.461 110.399 58.251C110.049 58.027 109.615 57.915 109.097 57.915C108.551 57.915 108.075 58.041 107.669 58.293C107.263 58.531 106.948 58.874 106.724 59.322C106.514 59.756 106.409 60.274 106.409 60.876C106.409 61.492 106.521 62.031 106.745 62.493C106.983 62.941 107.319 63.291 107.753 63.543C108.187 63.781 108.691 63.9 109.265 63.9C109.783 63.9 110.252 63.816 110.672 63.648C111.092 63.466 111.456 63.2 111.764 62.85L113.381 64.467C112.891 65.041 112.289 65.475 111.575 65.769C110.875 66.063 110.112 66.21 109.286 66.21ZM115.796 66V55.857H118.547V66H115.796ZM118.547 60.393L117.476 59.679C117.602 58.433 117.966 57.453 118.568 56.739C119.17 56.011 120.038 55.647 121.172 55.647C121.662 55.647 122.103 55.731 122.495 55.899C122.887 56.053 123.244 56.312 123.566 56.676L121.844 58.65C121.69 58.482 121.501 58.356 121.277 58.272C121.067 58.188 120.822 58.146 120.542 58.146C119.954 58.146 119.471 58.335 119.093 58.713C118.729 59.077 118.547 59.637 118.547 60.393ZM126.085 66V51.636H128.836V66H126.085ZM123.712 58.272V55.857H131.209V58.272H123.712Z" fill="black"/>
</svg>
